<svg width="54" height="64" viewBox="0 0 54 64" fill="none" xmlns="http://www.w3.org/2000/svg" id="icon">
<path fill-rule="evenodd" clip-rule="evenodd" d="M42.6156 12.6923C42.6156 10.6615 40.954 9 38.9233 9H14.9233C12.8925 9 11.231 10.6615 11.231 12.6923V53.3077C11.231 55.3385 12.8925 57 14.9233 57H38.9233C40.954 57 42.6156 55.3385 42.6156 53.3077V12.6923ZM26.9233 55.1538C25.354 55.1538 24.154 53.9538 24.154 52.3846C24.154 50.8154 25.354 49.6154 26.9233 49.6154C28.4925 49.6154 29.6925 50.8154 29.6925 52.3846C29.6925 53.9538 28.4925 55.1538 26.9233 55.1538ZM37.0771 46.3846C37.0771 47.1231 36.431 47.7692 35.6925 47.7692H18.154C17.4156 47.7692 16.7694 47.1231 16.7694 46.3846V17.7692C16.7694 17.0308 17.4156 16.3846 18.154 16.3846H35.6925C36.431 16.3846 37.0771 17.0308 37.0771 17.7692V46.3846Z" fill="#706E6B"/>
</svg>
