<svg width="54" height="64" viewBox="0 0 54 64" fill="none" xmlns="http://www.w3.org/2000/svg" id="icon">
<path d="M40 9H14C11.244 9 9 11.244 9 14V51.9999C9 54.756 11.244 57 14 57H39.9999C42.756 57 45 54.756 45 52V14C45 11.244 42.756 9 40 9ZM27 54C25.898 54 25 53.102 25 52C25 50.8981 25.8981 50.0001 27 50.0001C28.1019 50.0001 29 50.8981 29 52C29 53.102 28.102 54 27 54ZM41 48C41 48.552 40.5519 49 39.9999 49H14C13.448 49 12.9999 48.552 12.9999 48V14C12.9999 13.448 13.448 12.9999 14 12.9999H39.9999C40.5519 12.9999 41 13.448 41 14V48Z" fill="#706E6B"/>
</svg>
