<svg width="54" height="64" viewBox="0 0 54 64" fill="none" xmlns="http://www.w3.org/2000/svg" id="icon">
<path d="M37.1917 18.0787L34.5122 10.9315C34.3013 10.3718 33.7647 10 33.1667 10H21.6667C21.0668 10 20.532 10.3718 20.3212 10.9334L17.6417 18.0787C15.5123 18.924 14 20.9921 14 23.4167V42.5833C14 45.0079 15.5123 47.076 17.6417 47.9193L20.3212 55.0666C20.532 55.6282 21.0668 56 21.6667 56H33.1667C33.7647 56 34.3013 55.6282 34.5122 55.0666L37.1917 47.9193C39.3192 47.076 40.8333 45.0079 40.8333 42.5833V23.4167C40.8333 20.9921 39.3211 18.924 37.1917 18.0787ZM19.75 44.5C18.6939 44.5 17.8333 43.6394 17.8333 42.5833V23.4167C17.8333 22.3606 18.6939 21.5 19.75 21.5H35.0833C36.1394 21.5 37 22.3606 37 23.4167V42.5833C37 43.6394 36.1394 44.5 35.0833 44.5H19.75Z" fill="#706E6B"/>
<path d="M29.3333 32.2067V25.8127C29.3333 24.7547 28.4747 23.896 27.4167 23.896C26.3587 23.896 25.5 24.7547 25.5 25.8127V33.0002C25.5 33.5081 25.7013 33.9968 26.0616 34.3552L30.3741 38.6677C30.7478 39.0415 31.2385 39.2293 31.7292 39.2293C32.2198 39.2293 32.7105 39.0415 33.0842 38.6677C33.8337 37.9183 33.8337 36.707 33.0842 35.9576L29.3333 32.2067Z" fill="#706E6B"/>
</svg>
